<svg width="87" height="88" viewBox="0 0 87 88" fill="none" xmlns="http://www.w3.org/2000/svg">
<path d="M45.7979 43.6847L45.7503 43.3379C45.601 42.25 44.6716 41.4395 43.5735 41.4395C42.4915 41.4395 41.5706 42.2272 41.4029 43.2961L41.3399 43.6976C41.2031 44.57 40.6441 45.3185 39.8465 45.6973L39.7312 45.7521C38.8151 46.1872 37.7387 46.1148 36.8892 45.5607L36.51 45.3134C35.5977 44.7185 34.3991 44.8123 33.5905 45.542C32.6955 46.3497 32.5384 47.6959 33.2234 48.6879L33.363 48.8901C33.8302 49.5667 33.961 50.4202 33.7179 51.2056L33.6625 51.3846C33.36 52.3619 32.5487 53.0965 31.5462 53.3007L31.1222 53.3871C30.0645 53.6025 29.3047 54.5327 29.3047 55.6121C29.3047 56.6321 29.9849 57.527 30.9677 57.8L31.8064 58.033C32.6696 58.2728 33.3773 58.8915 33.7302 59.7149L33.8655 60.0308C34.2296 60.8801 34.0749 61.863 33.4677 62.5595L33.4279 62.6052C32.6336 63.5162 32.6641 64.8823 33.4981 65.757C34.3289 66.6283 35.6852 66.7269 36.6332 65.9849L36.9582 65.7306C37.7566 65.1057 38.8356 64.975 39.7602 65.391C40.6083 65.7727 41.2037 66.5599 41.3399 67.4799L41.4186 68.0106C41.5769 69.0793 42.4942 69.8707 43.5745 69.8707C44.6699 69.8707 45.5951 69.0577 45.736 67.9714L45.7949 67.5165C45.9167 66.5776 46.5211 65.7708 47.388 65.3902L47.4472 65.3642C48.3571 64.9648 49.4136 65.1034 50.1895 65.7242L50.4316 65.9179C51.3974 66.6905 52.7975 66.5787 53.6284 65.6625C54.3894 64.8235 54.4406 63.56 53.7499 62.6621L53.6557 62.5397C53.1206 61.844 52.9849 60.9204 53.2974 60.1002L53.3964 59.8402C53.7384 58.9423 54.4869 58.2605 55.4127 58.0033L56.1446 57.8C57.1274 57.527 57.8076 56.6321 57.8076 55.6121C57.8076 54.5327 57.0478 53.6025 55.9901 53.3871L55.4967 53.2866C54.5276 53.0891 53.727 52.4095 53.3749 51.4853L53.2962 51.2787C52.9829 50.4561 53.102 49.5312 53.6137 48.8149L53.7759 48.5878C54.445 47.6509 54.3215 46.3642 53.4863 45.5718C52.7046 44.8302 51.5139 44.7281 50.6174 45.3258L50.2571 45.566C49.431 46.1167 48.378 46.198 47.4772 45.7805L47.2798 45.689C46.4767 45.3169 45.9183 44.5616 45.7979 43.6847Z" stroke="black" stroke-width="3"/>
<path d="M35.8906 66.8369V83.9997L43.5185 77.5853L51.0598 83.9997V66.8369" stroke="black" stroke-width="3"/>
<path d="M62.3298 54.1818H72.3002C79.4799 54.1818 85.3002 48.3615 85.3002 41.1818V15C85.3002 7.82031 79.4799 2 72.3002 2H15C7.82029 2 2 7.8203 2 15V41.1818C2 48.3615 7.8203 54.1818 15 54.1818H24.8837M33.0317 15.0888H54.0951M14.3953 28.5243H72.9915M14.3953 34.9387H72.9915M14.3953 21.5899H72.9915" stroke="black" stroke-width="3"/>
<path d="M27.5705 49.7608H16.2008C13.9109 49.7608 11.8664 47.9489 10.3934 46.1958V46.1958C8.86525 44.3771 6.59375 42.0452 6.59375 39.6697V16.0973C6.59375 13.8978 8.37647 11.9351 9.98118 10.431V10.431C11.8404 8.68838 14.1204 6.59375 16.6686 6.59375H70.5208C73.0887 6.59375 75.2219 8.46709 77.0625 10.2577V10.2577C78.7648 11.9138 80.8792 14.041 80.8792 16.416V39.6569C80.8792 42.0775 78.8982 44.2393 77.1302 45.8926V45.8926C75.3622 47.546 73.1092 49.7608 70.6886 49.7608H59.6424" stroke="black" stroke-width="3"/>
</svg>
