<svg width="86" height="86" viewBox="0 0 86 86" fill="none" xmlns="http://www.w3.org/2000/svg">
<path d="M14.2307 14.479C25.4701 14.479 24.3404 2.00002 14.2307 2C4.97473 1.99998 4.80945 13.9209 14.2307 14.479ZM14.2307 14.479C17.6866 14.6838 22.7562 16.2959 25.5832 21.4061C26.8605 23.7148 26.886 27.1175 24.3131 27.7023V27.7023C22.8586 28.0328 10.2639 27.84 4.47888 27.7023C3.59736 27.5645 1.8839 26.8593 2.08225 25.1403C2.33017 22.9916 4.80952 15.305 14.2307 14.479Z" stroke="black" stroke-width="3"/>
<path d="M71.3518 70.5943C82.5912 70.5943 81.4615 58.1153 71.3518 58.1152C62.0958 58.1152 61.9305 70.0361 71.3518 70.5943ZM71.3518 70.5943C74.8077 70.799 79.8773 72.4112 82.7043 77.5213C83.9816 79.83 84.0071 83.2327 81.4342 83.8175V83.8175C79.9797 84.1481 67.385 83.9552 61.6 83.8175C60.7185 83.6797 59.005 82.9745 59.2033 81.2556C59.4513 79.1069 61.9306 71.4203 71.3518 70.5943Z" stroke="black" stroke-width="3"/>
<path d="M34.2307 13.6536H54.4781M54.4781 13.6536L47.6188 8.19922M54.4781 13.6536L47.6188 19.2733" stroke="black" stroke-width="3"/>
<path d="M13.8997 53.2393L13.8997 32.9918M13.8997 32.9918L8.44531 39.8512M13.8997 32.9918L19.5194 39.8512" stroke="black" stroke-width="3"/>
<path d="M51.668 71.8337H31.4205M31.4205 71.8337L38.2799 77.2881M31.4205 71.8337L38.2799 66.214" stroke="black" stroke-width="3"/>
<path d="M71.7487 31.835V52.0824M71.7487 52.0824L77.2031 45.2231M71.7487 52.0824L66.129 45.2231" stroke="black" stroke-width="3"/>
<path d="M14.1643 70.5943C25.4037 70.5943 24.274 58.1153 14.1643 58.1152C4.90833 58.1152 4.74304 70.0361 14.1643 70.5943ZM14.1643 70.5943C17.6202 70.799 22.6898 72.4112 25.5168 77.5213C26.7941 79.83 26.8196 83.2327 24.2467 83.8175V83.8175C22.7922 84.1481 10.1975 83.9552 4.41247 83.8175C3.53095 83.6797 1.8175 82.9745 2.01584 81.2556C2.26377 79.1069 4.74311 71.4203 14.1643 70.5943Z" stroke="black" stroke-width="3"/>
<path d="M71.3518 14.563C82.5912 14.563 81.4615 2.084 71.3518 2.08398C62.0958 2.08397 61.9305 14.0049 71.3518 14.563ZM71.3518 14.563C74.8077 14.7678 79.8773 16.3799 82.7043 21.4901C83.9816 23.7988 84.0071 27.2015 81.4342 27.7862V27.7862C79.9797 28.1168 67.385 27.924 61.6 27.7862C60.7185 27.6485 59.005 26.9433 59.2033 25.2243C59.4513 23.0756 61.9306 15.389 71.3518 14.563Z" stroke="black" stroke-width="3"/>
<path d="M45.1382 26.4629H40.7581L40.097 30.6777L36.7913 32.2479L32.9897 29.7686L29.6014 32.8264L31.998 36.2974L30.9236 39.7683L26.4609 40.6774V44.8095L30.9236 46.0492L32.4112 49.5202L29.6014 52.7432L32.9897 56.2969L36.7913 53.3217L40.097 54.8093L40.7581 59.272H45.1382L45.7167 54.8093L49.105 53.3217L52.8239 56.2969L56.047 52.7432L53.5677 49.5202L54.89 46.0492L59.3527 44.8095V40.6774L54.89 39.7683L53.5677 36.2974L56.047 32.8264L52.8239 29.7686L49.105 32.2479L45.7167 30.6777L45.1382 26.4629Z" stroke="black" stroke-width="3"/>
</svg>
