<svg width="78" height="86" viewBox="0 0 78 86" fill="none" xmlns="http://www.w3.org/2000/svg">
<path d="M46.7606 2.02531H5.26991C2.48174 1.76221 1.95065 3.61493 2.03363 4.57418V81.2281C2.03363 81.3766 2.01971 81.5255 2.00832 81.6735C1.89693 83.1222 2.92795 83.7628 3.63702 83.9529C3.7832 83.9921 3.93522 84 4.08657 84H57.7905C58.0155 84 58.2427 83.9819 58.4535 83.9031C59.9101 83.3584 60.2866 81.6382 60.2866 80.7934V71.9135M46.7606 2.02531L60.2866 15.263M46.7606 2.02531V12.2207C46.7606 13.2348 47.1921 15.263 48.9181 15.263H60.2866M60.2866 15.263V60.1558V61.1425M60.2866 61.1425L69.7284 51.8657C70.0142 51.585 70.35 51.3477 70.7431 51.2709C73.0422 50.8214 76.0812 52.6321 75.7046 56.1817C75.6451 56.7421 75.3411 57.24 74.9376 57.6334L60.2866 71.9135M60.2866 61.1425L54.8098 66.7335M60.2866 71.9135L57.9927 72.3505C55.9557 72.7387 54.1485 70.9924 54.4667 68.9433L54.8098 66.7335M60.2866 71.9135L54.8098 66.7335M9.99985 12.6318H22.0322M9.99985 17.894H28.2558M20.5385 29.6517H49.333M20.5385 61.2247H34.8113M20.5385 55.9625H51.9884M20.5385 69.2824H49.333M20.5385 42.8893H51.9884M20.5385 34.9961H34.8113M20.5385 74.5445H34.8113M20.5385 48.1515H41.3668M12.5308 74.5445V74.5445C13.9286 74.5445 15.0617 73.4114 15.0617 72.0136V71.8133C15.0617 70.4155 13.9286 69.2824 12.5308 69.2824V69.2824C11.133 69.2824 9.99985 70.4155 9.99985 71.8133V72.0136C9.99985 73.4114 11.133 74.5445 12.5308 74.5445ZM12.5308 61.2247V61.2247C13.9286 61.2247 15.0617 60.0915 15.0617 58.6937V58.4934C15.0617 57.0956 13.9286 55.9625 12.5308 55.9625V55.9625C11.133 55.9625 9.99985 57.0956 9.99985 58.4934V58.6937C9.99985 60.0915 11.133 61.2247 12.5308 61.2247ZM12.5308 48.1515V48.1515C13.9286 48.1515 15.0617 47.0183 15.0617 45.6205V45.4202C15.0617 44.0224 13.9286 42.8893 12.5308 42.8893V42.8893C11.133 42.8893 9.99985 44.0224 9.99985 45.4202V45.6205C9.99985 47.0183 11.133 48.1515 12.5308 48.1515ZM12.5308 29.8983V29.8983C13.9286 29.8983 15.0617 31.0494 15.0617 32.4472V32.4472C15.0617 33.845 13.9286 34.9961 12.5308 34.9961V34.9961C11.133 34.9961 9.99985 33.845 9.99985 32.4472V32.4472C9.99985 31.0494 11.133 29.8983 12.5308 29.8983Z" stroke="black" stroke-width="3"/>
</svg>
